<svg xmlns="http://www.w3.org/2000/svg" viewBox="0 0 21 21">
<polygon fill="#242528" points="9.13 17.92 0.7 19 6.43 15.28 0.23 11.21 6.61 11.21 0 0 8.57 5.5 7.15 1.26 10.48 3.35 12.71 0.51 15.41 4.28 18.11 0.81 16.58 16.25 9.13 17.92"></polygon>
<path fill="#b0b7bd" d="M6.85,20.5l-.15-.17c-.29-.32-.57-.66-.83-1l-.39-.54.83-.31a3.79,3.79,0,0,1,.46-.16,24,24,0,0,0,3.89-1.37l.07-.15c0-.15.08-.29.12-.44A5.89,5.89,0,0,1,10,14.1.83.83,0,0,1,9.8,14a1.82,1.82,0,0,1-.28-.4A6,6,0,0,1,9,11.71a2.08,2.08,0,0,1,0-.26,1.05,1.05,0,0,1,.45-1,5.16,5.16,0,0,1-.1-.73,4.49,4.49,0,0,1,1.16-3.27A5.37,5.37,0,0,1,13.4,4.61a5.3,5.3,0,0,1,1-.11,4.08,4.08,0,0,1,3,1.24,2.8,2.8,0,0,0,.69.56A2.27,2.27,0,0,1,19.2,8a7.11,7.11,0,0,1,0,2.54c0,.14,0,.23-.05.32v0a1,1,0,0,1,.25.65A4.79,4.79,0,0,1,18.72,14a1,1,0,0,1-.54.48l0,0c-.09.31-.19.61-.3.9a4.2,4.2,0,0,1-.28.56l-.16.29a.46.46,0,0,0,0,.11l0,.12a.74.74,0,0,0,.56.65c.71.26,1.42.5,2.14.73l.35.11V20.5H6.85Z"></path>
</svg>
